HIERARCHY
ROOT Hips
{
	OFFSET 0.000000 0.000000 0.000000
	CHANNELS 6 Xposition Yposition Zposition Zrotation Yrotation Xrotation 
	JOINT LHipJoint
	{
		OFFSET 0.000000 0.000000 0.000000
		CHANNELS 3 Zrotation Yrotation Xrotation
		JOINT LeftUpLeg
		{
			OFFSET 1.363060 -1.794630 0.839290
			CHANNELS 3 Zrotation Yrotation Xrotation
			JOINT LeftLeg
			{
				OFFSET 2.448110 -6.726130 0.000000
				CHANNELS 3 Zrotation Yrotation Xrotation
				JOINT LeftFoot
				{
					OFFSET 2.562200 -7.039590 0.000000
					CHANNELS 3 Zrotation Yrotation Xrotation
					JOINT LeftToeBase
					{
						OFFSET 0.157640 -0.433110 2.322550
						CHANNELS 3 Zrotation Yrotation Xrotation
						End Site
						{
							OFFSET 0.000000 0.000000 0.000000
						}
					}
				}
			}
		}
	}
	JOINT RHipJoint
	{
		OFFSET 0.000000 0.000000 0.000000
		CHANNELS 3 Zrotation Yrotation Xrotation
		JOINT RightUpLeg
		{
			OFFSET -1.305520 -1.794630 0.839290
			CHANNELS 3 Zrotation Yrotation Xrotation
			JOINT RightLeg
			{
				OFFSET -2.542530 -6.985550 0.000000
				CHANNELS 3 Zrotation Yrotation Xrotation
				JOINT RightFoot
				{
					OFFSET -2.568260 -7.056230 0.000000
					CHANNELS 3 Zrotation Yrotation Xrotation
					JOINT RightToeBase
					{
						OFFSET -0.164730 -0.452590 2.363150
						CHANNELS 3 Zrotation Yrotation Xrotation
						End Site
						{
							OFFSET 0.000000 0.000000 0.000000
						}
					}
				}
			}
		}
	}
	JOINT LowerBack
	{
		OFFSET 0.000000 0.000000 0.000000
		CHANNELS 3 Zrotation Yrotation Xrotation
		JOINT Spine
		{
			OFFSET 0.028270 2.035590 -0.193380
			CHANNELS 3 Zrotation Yrotation Xrotation
			JOINT Spine1
			{
				OFFSET 0.056720 2.048850 -0.042750
				CHANNELS 3 Zrotation Yrotation Xrotation
				JOINT Neck
				{
					OFFSET 0.000000 0.000000 0.000000
					CHANNELS 3 Zrotation Yrotation Xrotation
					JOINT Neck1
					{
						OFFSET -0.054170 1.746240 0.172020
						CHANNELS 3 Zrotation Yrotation Xrotation
						JOINT Head
						{
							OFFSET 0.104070 1.761360 -0.123970
							CHANNELS 3 Zrotation Yrotation Xrotation
							End Site
							{
								OFFSET 0.000000 0.000000 0.000000
							}
						}
					}
				}
				JOINT LeftShoulder
				{
					OFFSET 0.000000 0.000000 0.000000
					CHANNELS 3 Zrotation Yrotation Xrotation
					JOINT LeftArm
					{
						OFFSET 3.362410 1.200890 -0.311210
						CHANNELS 3 Zrotation Yrotation Xrotation
						JOINT LeftForeArm
						{
							OFFSET 4.983000 -0.000000 -0.000000
							CHANNELS 3 Zrotation Yrotation Xrotation
							JOINT LeftHand
							{
								OFFSET 3.483560 -0.000000 -0.000000
								CHANNELS 3 Zrotation Yrotation Xrotation
								JOINT LeftFingerBase
								{
									OFFSET 0.000000 0.000000 0.000000
									CHANNELS 3 Zrotation Yrotation Xrotation
									JOINT LeftHandIndex1
									{
										OFFSET 0.715260 -0.000000 -0.000000
										CHANNELS 3 Zrotation Yrotation Xrotation
										End Site
										{
											OFFSET 0.000000 0.000000 0.000000
										}
									}
								}
								JOINT LThumb
								{
									OFFSET 0.000000 0.000000 0.000000
									CHANNELS 3 Zrotation Yrotation Xrotation
									End Site
									{
										OFFSET 0.000000 0.000000 0.000000
									}
								}
							}
						}
					}
				}
				JOINT RightShoulder
				{
					OFFSET 0.000000 0.000000 0.000000
					CHANNELS 3 Zrotation Yrotation Xrotation
					JOINT RightArm
					{
						OFFSET -3.136600 1.374050 -0.404650
						CHANNELS 3 Zrotation Yrotation Xrotation
						JOINT RightForeArm
						{
							OFFSET -5.241900 -0.000000 -0.000000
							CHANNELS 3 Zrotation Yrotation Xrotation
							JOINT RightHand
							{
								OFFSET -3.444170 -0.000000 -0.000000
								CHANNELS 3 Zrotation Yrotation Xrotation
								JOINT RightFingerBase
								{
									OFFSET 0.000000 0.000000 0.000000
									CHANNELS 3 Zrotation Yrotation Xrotation
									JOINT RightHandIndex1
									{
										OFFSET -0.622530 -0.000000 -0.000000
										CHANNELS 3 Zrotation Yrotation Xrotation
										End Site
										{
											OFFSET 0.000000 0.000000 0.000000
										}
									}
								}
								JOINT RThumb
								{
									OFFSET 0.000000 0.000000 0.000000
									CHANNELS 3 Zrotation Yrotation Xrotation
									End Site
									{
										OFFSET 0.000000 0.000000 0.000000
									}
								}
							}
						}
					}
				}
			}
		}
	}
}
MOTION
Frames: 9
Frame Time: 0.008333
-30.027384 17.444187 1.143871 16.536908 87.047357 11.949840 1.423606 -2.088304 -0.093127 -13.147916 3.939951 16.226464 -1.971521 -0.043035 0.784864 -1.493635 14.407993 -15.408852 0.325700 -3.668000 -10.144600 -5.710548 4.356127 -7.097482 18.391017 -11.422457 18.527121 -0.540391 -2.647444 2.287298 -0.416435 4.188764 -11.383709 -0.248900 -3.210200 8.864500 -0.870937 0.936820 6.214416 0.711620 1.317785 -1.877531 -1.232998 0.172383 5.242619 -1.158709 1.754447 -19.450157 5.397677 2.388429 7.567610 -0.363900 1.353600 10.045800 6.770998 -0.893252 0.146603 -94.159135 -4.265675 37.074297 8.968936 -17.364984 -1.591340 -0.064006 0.803693 19.561731 14.126324 -25.402565 -6.475500 -7.125000 0.000000 0.000000 -9.266200 3.424100 8.814200 -6.488737 0.942918 1.675733 88.519515 0.256500 45.627893 -17.295856 31.829834 -4.353010 0.412234 -2.715102 3.363383 -10.706038 -35.328501 6.144400 7.125000 0.000000 0.000000 24.625500 -61.306800 -10.122500 
-30.029334 17.445521 1.143974 14.505219 87.016785 9.942191 1.352158 -2.093034 -0.075149 -12.576005 4.675737 15.756154 -1.916079 0.078487 1.120524 -1.408571 13.737483 -14.891485 0.349600 -3.799100 -10.512100 -5.808262 4.320805 -7.100570 18.643603 -11.374658 18.446834 -0.540483 -2.663324 2.320089 -0.417672 4.214221 -11.403520 -0.223800 -3.044900 8.403800 -0.747728 0.954483 6.220741 0.722747 1.344043 -1.883026 -1.276833 0.189317 5.216977 -1.188110 1.724424 -19.448763 5.432336 2.358590 7.571374 -0.336200 1.342200 10.049000 6.771318 -0.893244 0.144370 -94.160044 -4.261519 37.062368 8.962704 -17.348274 -1.588359 -0.081954 0.811336 19.615429 14.834372 -25.375379 -6.807100 -7.125000 0.000000 0.000000 -8.825400 3.348400 8.396700 -6.490448 0.949913 1.674841 88.517084 0.232381 45.550178 -17.297026 31.834118 -4.352325 0.421922 -2.714012 3.386134 -10.540113 -35.277877 6.050700 7.125000 0.000000 0.000000 24.745700 -61.226700 -10.128200 
-30.028513 17.445726 1.140279 14.938948 87.037430 10.384349 1.369745 -2.100288 -0.077242 -12.506166 4.967238 15.574324 -1.897331 0.124334 1.232888 -1.389505 13.519272 -14.546409 0.390900 -4.014500 -11.117400 -5.788613 4.331408 -7.095385 18.510654 -11.507074 18.373603 -0.540710 -2.686447 2.378863 -0.418421 4.304829 -11.401767 -0.206800 -2.927800 8.077700 -0.700017 0.972392 6.209060 0.709523 1.368108 -1.886410 -1.339167 0.207020 5.204604 -1.173060 1.690079 -19.410628 5.422714 2.303388 7.562049 -0.348100 1.317500 10.033700 6.767003 -0.895067 0.144222 -94.110013 -4.213558 37.315973 8.991695 -17.387893 -1.595807 -0.069968 0.804994 19.479374 14.282035 -25.367849 -6.541800 -7.125000 0.000000 0.000000 -9.167000 3.436900 8.715100 -6.492242 0.952047 1.677408 88.541763 0.174862 45.502982 -17.332607 31.885880 -4.373264 0.423237 -2.723714 3.361806 -10.553311 -35.538141 6.099800 7.125000 0.000000 0.000000 24.958800 -61.453000 -10.356100 
-30.027692 17.445419 1.138124 16.087927 87.033068 11.510806 1.412987 -2.103852 -0.086911 -12.656982 4.974205 15.617129 -1.902207 0.107073 1.171897 -1.411634 13.622745 -14.430792 0.411200 -4.116600 -11.405000 -5.735047 4.355772 -7.093183 18.307453 -11.620535 18.366311 -0.541731 -2.695369 2.405580 -0.418974 4.404427 -11.385502 -0.215200 -2.986800 8.241900 -0.730908 0.993252 6.229052 0.694947 1.396085 -1.882151 -1.357909 0.222698 5.205241 -1.160628 1.678079 -19.403544 5.402455 2.280302 7.545409 -0.364900 1.304900 10.022300 6.765057 -0.895829 0.144987 -94.020193 -4.157746 37.776814 9.072075 -17.508696 -1.618852 -0.056335 0.793513 19.061319 13.513841 -25.286055 -6.158300 -7.125000 0.000000 0.000000 -9.638000 3.630400 9.140900 -6.495934 0.950402 1.678583 88.583720 0.189796 45.438564 -17.308498 31.869273 -4.370577 0.415793 -2.729802 3.357505 -10.666996 -35.640629 6.174700 7.125000 0.000000 0.000000 24.934200 -61.563700 -10.410900 
-30.028205 17.444392 1.139150 15.826334 86.972459 11.255188 1.403408 -2.101256 -0.089361 -12.755068 4.757069 15.789548 -1.920185 0.040610 0.997448 -1.444915 13.896367 -14.682657 0.385400 -3.986800 -11.039600 -5.747942 4.350895 -7.098632 18.353041 -11.536174 18.388487 -0.544915 -2.684857 2.382759 -0.416079 4.436549 -11.312147 -0.250900 -3.222900 8.899800 -0.781553 1.003611 6.213532 0.709254 1.408206 -1.873546 -1.273095 0.220787 5.245192 -1.197419 1.689773 -19.471410 5.393310 2.312826 7.561465 -0.361600 1.315300 10.046700 6.770911 -0.892555 0.145117 -94.145493 -4.279743 37.453085 8.983905 -17.379830 -1.593874 -0.049740 0.792644 19.323689 13.396402 -25.282411 -6.102200 -7.125000 0.000000 0.000000 -9.710500 3.650300 9.208100 -6.488417 0.943693 1.674959 88.522069 0.261581 45.485824 -17.285938 31.831779 -4.359318 0.419033 -2.725990 3.328534 -10.595797 -35.625515 6.134200 7.125000 0.000000 0.000000 24.997800 -61.537200 -10.423600 
-30.028410 17.443366 1.139150 15.474316 86.975573 10.913996 1.388216 -2.098103 -0.089397 -12.854482 4.441236 15.957190 -1.939609 -0.000164 0.897750 -1.456173 14.076074 -15.050426 0.329100 -3.686900 -10.197500 -5.764257 4.343581 -7.102579 18.414746 -11.484861 18.412568 -0.545316 -2.665978 2.330836 -0.410799 4.348001 -11.225622 -0.274600 -3.370400 9.311700 -0.789901 0.976980 6.174520 0.721844 1.372428 -1.866161 -1.230612 0.197636 5.295432 -1.200747 1.717602 -19.511860 5.392159 2.354428 7.567826 -0.358600 1.333400 10.056800 6.772897 -0.889380 0.146269 -94.158110 -4.312767 37.478950 8.990751 -17.394133 -1.596037 -0.053094 0.791287 19.247226 13.448064 -25.222023 -6.113200 -7.125000 0.000000 0.000000 -9.674500 3.705400 9.162900 -6.479941 0.936137 1.674523 88.459603 0.289388 45.627639 -17.325635 31.864603 -4.368431 0.426507 -2.721764 3.251711 -10.520856 -35.621081 6.094400 7.125000 0.000000 0.000000 25.073400 -61.520000 -10.447100 
-30.028308 17.443879 1.138432 15.791375 87.066362 11.211385 1.396623 -2.097195 -0.088172 -12.878067 4.363807 15.921814 -1.940167 0.046169 1.022567 -1.440669 13.993127 -15.085693 0.301100 -3.528300 -9.753100 -5.747880 4.351945 -7.098289 18.359484 -11.611185 18.421047 -0.541403 -2.662735 2.312429 -0.411024 4.302193 -11.245501 -0.245600 -3.188800 8.804900 -0.769814 0.937978 6.207746 0.721170 1.321539 -1.871759 -1.252058 0.174121 5.270147 -1.185047 1.733323 -19.498458 5.394387 2.370615 7.571323 -0.358200 1.342600 10.058000 6.770710 -0.892918 0.146048 -94.130981 -4.297071 37.473439 8.989086 -17.389764 -1.595397 -0.057568 0.795563 19.261871 13.663542 -25.290781 -6.230200 -7.125000 0.000000 0.000000 -9.545400 3.604600 9.055100 -6.482782 0.941166 1.675556 88.472496 0.248572 45.641351 -17.330889 31.867823 -4.366397 0.424682 -2.717290 3.269461 -10.562294 -35.462208 6.091300 7.125000 0.000000 0.000000 24.888800 -61.392000 -10.289000 
-30.028821 17.444905 1.139048 16.240786 87.093262 11.632835 1.414324 -2.095757 -0.089371 -12.895014 4.413261 15.902358 -1.938481 0.059438 1.052358 -1.461042 14.061123 -14.941732 0.341400 -3.754600 -10.387400 -5.723226 4.361810 -7.096921 18.316628 -11.625400 18.475850 -0.539936 -2.658427 2.303551 -0.415742 4.327774 -11.326751 -0.235400 -3.122600 8.620400 -0.793165 0.941763 6.268820 0.719454 1.326322 -1.877017 -1.239164 0.177231 5.224538 -1.184500 1.724417 -19.482790 5.380108 2.357632 7.579687 -0.368800 1.335700 10.063600 6.772772 -0.898271 0.144514 -94.163422 -4.303298 37.327135 8.971700 -17.362907 -1.590961 -0.054555 0.797682 19.427506 13.686657 -25.353837 -6.255300 -7.125000 0.000000 0.000000 -9.535500 3.536300 9.057600 -6.485171 0.948093 1.675118 88.477809 0.212097 45.558733 -17.284308 31.811129 -4.348203 0.419411 -2.713169 3.388656 -10.568547 -35.321746 6.072400 7.125000 0.000000 0.000000 24.758600 -61.272700 -10.161000 
-30.030463 17.445213 1.140587 16.272698 87.024487 11.670662 1.419280 -2.097805 -0.089352 -12.760451 4.764831 15.755518 -1.919780 0.071378 1.076519 -1.463956 13.972748 -14.602104 0.396800 -4.044600 -11.202100 -5.720738 4.355897 -7.104902 18.402692 -11.380089 18.550115 -0.544165 -2.637849 2.265749 -0.417629 4.316743 -11.357107 -0.271200 -3.349600 9.253600 -0.806763 0.981306 6.254111 0.706419 1.379737 -1.868184 -1.281689 0.207486 5.247041 -1.135611 1.710188 -19.461113 5.373398 2.318288 7.551047 -0.387600 1.319900 10.038900 6.771331 -0.897049 0.147096 -94.076463 -4.319234 37.501933 8.984555 -17.382234 -1.594316 -0.050701 0.791993 19.306146 13.419133 -25.241553 -6.103800 -7.125000 0.000000 0.000000 -9.693900 3.688700 9.184900 -6.488394 0.944601 1.677734 88.535757 0.222927 45.471356 -17.252177 31.790339 -4.342270 0.418540 -2.720311 3.450178 -10.515377 -35.442680 6.063300 7.125000 0.000000 0.000000 24.916400 -61.362800 -10.283900 
